<svg xmlns="http://www.w3.org/2000/svg" width="70" height="70" viewBox="0 0 70 70">
  <path id="Icon_awesome-tasks" data-name="Icon awesome-tasks" d="M19.087,2.82a1.467,1.467,0,0,0-2.324,0L8.057,13.078l-3.1-3.584a1.523,1.523,0,0,0-1.162-.572,1.523,1.523,0,0,0-1.162.572L.483,12.041a2.207,2.207,0,0,0,0,2.754l6.506,7.68a1.556,1.556,0,0,0,2.408,0l2.131-2.531L21.4,8.248a2.225,2.225,0,0,0,.012-2.754Zm0,25.793a1.467,1.467,0,0,0-2.324,0L8.057,38.937l-3.1-3.581a1.523,1.523,0,0,0-1.162-.572,1.523,1.523,0,0,0-1.162.572L.483,37.9a2.207,2.207,0,0,0,0,2.754l6.49,7.7a1.555,1.555,0,0,0,2.406,0l2.146-2.542,9.871-11.7a2.208,2.208,0,0,0,.012-2.738ZM8.75,56.693c-3.622,0-6.643,3.484-6.643,7.777s3.024,7.777,6.643,7.777,6.563-3.482,6.563-7.777-2.938-7.777-6.563-7.777Zm59.063,2.592H28.437a2.416,2.416,0,0,0-2.188,2.592v5.185a2.416,2.416,0,0,0,2.188,2.592H67.813A2.416,2.416,0,0,0,70,67.063V61.878A2.416,2.416,0,0,0,67.813,59.286Zm0-51.848H28.437A2.416,2.416,0,0,0,26.25,10.03v5.185a2.416,2.416,0,0,0,2.188,2.592H67.813A2.416,2.416,0,0,0,70,15.215V10.03A2.416,2.416,0,0,0,67.813,7.438Zm0,25.924H28.437a2.416,2.416,0,0,0-2.188,2.592v5.185a2.416,2.416,0,0,0,2.188,2.592H67.813A2.416,2.416,0,0,0,70,41.139V35.954A2.416,2.416,0,0,0,67.813,33.362Z" transform="translate(0 -2.248)"/>
</svg>
