<svg xmlns="http://www.w3.org/2000/svg" width="23.557" height="20.423" viewBox="0 0 23.557 20.423">
  <g id="Icon_ionic-md-construct" data-name="Icon ionic-md-construct" transform="translate(-1.124 -3.375)">
    <path id="Path_68" data-name="Path 68" d="M21.942,20.327l-6-5.84h0l-2.915-2.842h0l-.672-.653a5.452,5.452,0,0,0-1.335-5.973A5.984,5.984,0,0,0,4.446,3.9l3.818,3.72L5.6,10.212,1.692,6.492a5.487,5.487,0,0,0,1.159,6.4,5.812,5.812,0,0,0,6.126,1.3l.722.7L4.421,20.062a.829.829,0,0,0,.1,1.305l2.2,2.145a.942.942,0,0,0,1.34,0L12.875,18l5.69,5.541a.871.871,0,0,0,1.244,0l2.042-1.993A.771.771,0,0,0,21.942,20.327Z" transform="translate(0 0)"/>
    <path id="Path_69" data-name="Path 69" d="M27.438,10.357,26.01,8.945a.235.235,0,0,0-.331,0l-.153.153-.766-.654a1.226,1.226,0,0,0-.2-.774A10.1,10.1,0,0,0,23.6,6.555a11.525,11.525,0,0,0-2.886-2.128,8,8,0,0,0-3.764-1.052V4.6a19.206,19.206,0,0,1,1.868,1.23c.675.542.7,2.464.7,2.464l-1.18,1.18,2.34,2.323,1.284-1.5a1.824,1.824,0,0,1,1.251-.012l.567.551-.4.393a.23.23,0,0,0,0,.327L24.8,12.97a.235.235,0,0,0,.331,0l2.307-2.286A.238.238,0,0,0,27.438,10.357Z" transform="translate(-2.823)"/>
  </g>
</svg>
