<svg xmlns="http://www.w3.org/2000/svg" width="18" height="26.182" viewBox="0 0 18 26.182">
  <path id="Icon_awesome-lightbulb" data-name="Icon awesome-lightbulb" d="M4.912,23.234a1.637,1.637,0,0,0,.274.9l.874,1.314a1.636,1.636,0,0,0,1.362.73h3.156a1.636,1.636,0,0,0,1.362-.73l.874-1.314a1.636,1.636,0,0,0,.274-.9l0-1.961H4.91l0,1.961ZM0,9a8.95,8.95,0,0,0,2.227,5.921A14.7,14.7,0,0,1,4.9,19.6c0,.013,0,.027.006.04H13.1c0-.013,0-.026.006-.04a14.7,14.7,0,0,1,2.67-4.676A9,9,0,1,0,0,9ZM9,4.909A4.1,4.1,0,0,0,4.909,9,.818.818,0,0,1,3.273,9,5.734,5.734,0,0,1,9,3.273.818.818,0,0,1,9,4.909Z" transform="translate(0 0)"/>
</svg>
