<svg xmlns="http://www.w3.org/2000/svg" width="25.384" height="20.307" viewBox="0 0 25.384 20.307">
  <path id="Icon_awesome-shipping-fast" data-name="Icon awesome-shipping-fast" d="M24.749,13.961h-.635V9.674a1.9,1.9,0,0,0-.559-1.345L19.593,4.367a1.9,1.9,0,0,0-1.345-.559H16.5V1.9A1.9,1.9,0,0,0,14.6,0H4.442a1.9,1.9,0,0,0-1.9,1.9v1.9H.317A.318.318,0,0,0,0,4.125v.635a.318.318,0,0,0,.317.317H11.105a.318.318,0,0,1,.317.317v.635a.318.318,0,0,1-.317.317H1.586a.318.318,0,0,0-.317.317V7.3a.318.318,0,0,0,.317.317h8.25a.318.318,0,0,1,.317.317v.635a.318.318,0,0,1-.317.317H.317A.318.318,0,0,0,0,9.2v.635a.318.318,0,0,0,.317.317h8.25a.318.318,0,0,1,.317.317v.635a.318.318,0,0,1-.317.317H2.538V16.5a3.808,3.808,0,1,0,7.615,0H15.23a3.808,3.808,0,1,0,7.615,0h1.9a.636.636,0,0,0,.635-.635V14.6A.636.636,0,0,0,24.749,13.961ZM6.346,18.4a1.9,1.9,0,1,1,1.9-1.9A1.9,1.9,0,0,1,6.346,18.4Zm12.692,0a1.9,1.9,0,1,1,1.9-1.9A1.9,1.9,0,0,1,19.038,18.4Zm3.173-8.25H16.5V5.711h1.749l3.962,3.962Z"/>
</svg>
