<svg xmlns="http://www.w3.org/2000/svg" width="70" height="70" viewBox="0 0 70 70">
  <path id="camera" d="M61.25,70H8.75a8.179,8.179,0,0,1-6.187-2.734A9.292,9.292,0,0,1,0,60.667V23.333a9.308,9.308,0,0,1,2.563-6.6A8.165,8.165,0,0,1,8.75,14h6.358L17.98,7.145a8.587,8.587,0,0,1,3.761-5.1A11.666,11.666,0,0,1,28.439,0H41.564a11.666,11.666,0,0,1,6.7,2.041,8.284,8.284,0,0,1,3.691,5.1L54.894,14h6.358a8.179,8.179,0,0,1,6.187,2.734A9.285,9.285,0,0,1,70,23.333V60.667a9.308,9.308,0,0,1-2.563,6.6A8.165,8.165,0,0,1,61.25,70ZM35,18.667A20.327,20.327,0,0,0,24.028,21.8,22.661,22.661,0,0,0,16.065,30.3,23.958,23.958,0,0,0,13.125,42a23.9,23.9,0,0,0,2.94,11.7A22.7,22.7,0,0,0,24.028,62.2a20.764,20.764,0,0,0,21.945,0A22.7,22.7,0,0,0,53.935,53.7,23.9,23.9,0,0,0,56.875,42a23.958,23.958,0,0,0-2.94-11.7A22.661,22.661,0,0,0,45.972,21.8,20.327,20.327,0,0,0,35,18.667Zm0,42A16.345,16.345,0,0,1,22.628,55.2,18.616,18.616,0,0,1,17.5,42a18.594,18.594,0,0,1,5.128-13.2,16.729,16.729,0,0,1,24.745,0A18.594,18.594,0,0,1,52.5,42a18.616,18.616,0,0,1-5.128,13.2A16.345,16.345,0,0,1,35,60.667ZM35,28a12.266,12.266,0,0,0-9.3,4.084A13.981,13.981,0,0,0,21.875,42,13.959,13.959,0,0,0,25.7,51.916a12.623,12.623,0,0,0,18.593,0A13.959,13.959,0,0,0,48.125,42,13.981,13.981,0,0,0,44.3,32.084,12.266,12.266,0,0,0,35,28Z"/>
</svg>
