<svg id="shirt" xmlns="http://www.w3.org/2000/svg" width="70" height="70" viewBox="0 0 70 70">
  <path id="Path_70" data-name="Path 70" d="M18,6.75a4.563,4.563,0,0,0,4.5-4.078.438.438,0,0,0-.422-.422.914.914,0,0,0-.333.063A11.311,11.311,0,0,1,18,2.883a11.258,11.258,0,0,1-3.745-.57,1.14,1.14,0,0,0-.373-.063h0a.4.4,0,0,0-.378.422A4.575,4.575,0,0,0,18,6.75Z" transform="translate(16.999 -2.25)"/>
  <path id="Path_71" data-name="Path 71" d="M69.561,10.343,50.706,3.161a.542.542,0,0,0-.493.054.638.638,0,0,0-.277.447C48.811,11.007,42.971,16.39,36.128,16.39S23.445,11.007,22.319,3.662a.638.638,0,0,0-.28-.453.541.541,0,0,0-.5-.048L2.687,10.343a2.576,2.576,0,0,0-1.52,2.873L3.591,27.182a2.424,2.424,0,0,0,2.03,2.047l7.128.876a1.241,1.241,0,0,1,1.035,1.3L12.717,69.634A2.573,2.573,0,0,0,14.044,72a2.376,2.376,0,0,0,1.081.246h42A2.376,2.376,0,0,0,58.206,72a2.573,2.573,0,0,0,1.327-2.37L58.465,31.405a1.241,1.241,0,0,1,1.035-1.3l7.128-.876a2.424,2.424,0,0,0,2.03-2.047l2.424-13.966a2.576,2.576,0,0,0-1.52-2.873Z" transform="translate(-1.125 -2.25)"/>
</svg>
