<svg xmlns="http://www.w3.org/2000/svg" xmlns:xlink="http://www.w3.org/1999/xlink" width="70" height="70" viewBox="0 0 70 70">
  <defs>
    <style>
      .cls-1 {
        stroke: #707070;
      }

      .cls-2 {
        clip-path: url(#clip-path);
      }
    </style>
    <clipPath id="clip-path">
      <rect id="Rectangle_41" data-name="Rectangle 41" class="cls-1" width="70" height="70" transform="translate(199 325)"/>
    </clipPath>
  </defs>
  <g id="Mask_Group_2" data-name="Mask Group 2" class="cls-2" transform="translate(-199 -325)">
    <g id="__TEMP__SVG__" transform="translate(201.144 325)">
      <path id="Path_76" data-name="Path 76" d="M132.1,73.56a2.176,2.176,0,0,0-2.611-1.523l-5.418,1.458A30.962,30.962,0,0,0,129.3,58.808a31.506,31.506,0,0,0-10.509-26.437A2.145,2.145,0,0,0,116,35.635a27.089,27.089,0,0,1,9.052,22.759A26.524,26.524,0,0,1,120.7,70.884l-.544-5.461a2.176,2.176,0,1,0-4.243.348L117,79.783l13.6-3.612A2.176,2.176,0,0,0,132.1,73.56Z" transform="translate(-66.454 -17.046)"/>
      <path id="Path_77" data-name="Path 77" d="M18.3,37.868a2.306,2.306,0,0,0,.957.348A2.176,2.176,0,0,0,21.7,36.367,26.567,26.567,0,0,1,49.592,13.412l-4.874,3.329a2.146,2.146,0,0,0,2.415,3.547l11.6-7.964L48.809,2.359a2.176,2.176,0,1,0-3.024,3l3.7,3.7A30.9,30.9,0,0,0,17.39,35.78a2.176,2.176,0,0,0,.914,2.089Z" transform="translate(-16.146 -1.372)"/>
      <path id="Path_78" data-name="Path 78" d="M54.915,113.427a26.11,26.11,0,0,1-10.531,1.11,26.763,26.763,0,0,1-20.823-13.708l5.418,2.024a2.176,2.176,0,0,0,1.5-4l-9.987-3.7L17.294,94l-2.415,13.817a2.176,2.176,0,0,0,1.719,2.459h.37a2.176,2.176,0,0,0,2.176-1.762l.914-5.222a31.115,31.115,0,0,0,23.934,15.536,30.266,30.266,0,0,0,12.25-1.306,2.176,2.176,0,0,0-1.306-4.134Z" transform="translate(-14.854 -48.971)"/>
      <path id="Path_79" data-name="Path 79" d="M77.771,58.188H60.364a2.176,2.176,0,0,0-2.176,2.176V77.771a2.176,2.176,0,0,0,2.176,2.176H77.771a2.176,2.176,0,0,0,2.176-2.176V60.364A2.176,2.176,0,0,0,77.771,58.188ZM75.6,75.6H62.54V62.54H75.6Z" transform="translate(-37.123 -30.569)"/>
    </g>
  </g>
</svg>
