<svg xmlns="http://www.w3.org/2000/svg" width="70" height="70" viewBox="0 0 70 70">
  <path id="mypictures" d="M61.266,70H8.764a7.944,7.944,0,0,1-6.188-2.929A10.354,10.354,0,0,1,.013,60V20a5.162,5.162,0,0,1,1.3-3.514A3.964,3.964,0,0,1,4.387,15H37.2l3.145-6.562a4.686,4.686,0,0,1,1.913-2.46A5.263,5.263,0,0,1,45.267,5H61.673a5.364,5.364,0,0,1,3.075.976,5.077,5.077,0,0,1,1.983,2.46L70.013,15V60a10.375,10.375,0,0,1-2.563,7.071A7.931,7.931,0,0,1,61.262,70ZM56.89,25H13.139V55.78l6.221-7.187a3.389,3.389,0,0,1,5.127,0L34.4,60h4.375L32.9,53.2,43.425,41.092a3.266,3.266,0,0,1,2.563-1.172,3.07,3.07,0,0,1,2.5,1.172L56.892,50.7V25ZM28.452,45A5.956,5.956,0,0,1,23.8,42.812,7.786,7.786,0,0,1,21.89,37.5,7.786,7.786,0,0,1,23.8,32.188a6.033,6.033,0,0,1,9.3,0A7.786,7.786,0,0,1,35.013,37.5,7.786,7.786,0,0,1,33.1,42.812,5.956,5.956,0,0,1,28.452,45ZM3.158,3.437A4.686,4.686,0,0,1,5.072.976,5.263,5.263,0,0,1,8.079,0H24.485A5.364,5.364,0,0,1,27.56.976a5.077,5.077,0,0,1,1.983,2.46L32.825,10H.013Z" transform="translate(-0.013)"/>
</svg>
